<?xml version="1.0" encoding="UTF-8"?><svg id="Livello_1" xmlns="http://www.w3.org/2000/svg" viewBox="0 0 12304.07 965.52"><defs><style>.cls-1{fill:#fff;}</style></defs><path class="cls-1" d="M0,944.78V18.14h681.69v158.11H187.92v207.36h432.86v154.23H187.92v250.12h497.66v156.81H0Z"/><path class="cls-1" d="M734.82,944.78V18.14h264.37l130.91,465.27c9.5,34.56,19.22,72.8,29.16,114.7s17.5,74.95,22.69,99.14l6.47,36.28h2.59c16.41-88.98,35.42-172.36,57.03-250.12L1378.93,18.14h268.27v926.64h-174.95V413.42l7.78-191.81h-2.59c-13.83,72.59-27.22,131.34-40.17,176.27l-159.42,546.91h-180.14l-155.52-546.91-40.17-176.27h-2.59c5.17,77.77,7.77,141.7,7.77,191.81v531.36h-172.36Z"/><path class="cls-1" d="M1723.66,944.78V18.14h187.92v926.64h-187.92Z"/><path class="cls-1" d="M1988.03,944.78V18.14h187.92v769.83h435.45v156.81h-623.38Z"/><path class="cls-1" d="M2646.38,944.78V18.14h187.92v926.64h-187.92Z"/><path class="cls-1" d="M2843.36,944.78L3166.07,18.14h194.39l326.59,926.64h-195.69l-62.2-196.98h-334.38l-60.91,196.98h-190.52ZM3221.78,336.95l-82.94,266.98h244.94l-82.94-266.98-37.58-142.56h-2.59c-15.56,62.22-28.52,109.73-38.89,142.56Z"/><path class="cls-1" d="M3697.42,944.78V18.14h190.52l308.44,517.11c8.64,14.69,18.36,32.84,29.16,54.44s19.22,39.73,25.28,54.42l10.38,20.73h2.58c-3.45-63.94-5.17-117.5-5.17-160.7V18.14h185.33v926.64h-181.44l-316.23-511.92c-8.64-14.69-18.58-32.61-29.81-53.78-11.23-21.16-19.88-39.09-25.91-53.78l-10.37-20.73h-2.59c3.45,64.8,5.19,118.8,5.19,162v478.22h-185.33Z"/><path class="cls-1" d="M5250.01,830.09c-81.22,90.28-189.22,135.42-324,135.42s-243-45.14-324.64-135.42c-81.66-90.28-122.47-205.84-122.47-346.69s40.81-256.61,122.47-347.33C4683.01,45.36,4791.23,0,4926.01,0s242.78,45.36,324,136.08c81.22,90.72,121.83,206.5,121.83,347.33s-40.61,256.41-121.83,346.69ZM4737.45,719.28c44.5,61.34,107.78,92.02,189.86,92.02s144.72-30.45,187.92-91.36c43.19-60.91,64.8-139.75,64.8-236.53s-21.61-175.83-64.8-237.17c-43.2-61.34-105.84-92.02-187.92-92.02s-145.36,30.67-189.86,92.02-66.75,140.41-66.75,237.17,22.25,174.53,66.75,235.88Z"/><path class="cls-1" d="M5294.07,944.78L5656.97,18.14h139.97l-362.89,926.64h-139.97Z"/><path class="cls-1" d="M5817.65,944.78V18.14h406.94c105.41,0,186.2,28.95,242.36,86.83,55.28,57.03,82.94,127.45,82.94,211.25,0,88.12-27.66,158.98-82.95,212.55-55.3,53.58-130.89,80.36-226.78,80.36h-228.09v335.66h-194.41ZM6012.05,181.44v274.75h194.39c48.38,0,85.53-12.31,111.45-36.94s38.89-58.53,38.89-101.73-12.97-76.67-38.89-100.44c-25.92-23.75-62.2-35.64-108.86-35.64h-196.98Z"/><path class="cls-1" d="M7319.69,830.09c-81.22,90.28-189.22,135.42-324,135.42s-243-45.14-324.64-135.42c-81.66-90.28-122.47-205.84-122.47-346.69s40.81-256.61,122.47-347.33C6752.69,45.36,6860.91,0,6995.69,0s242.78,45.36,324,136.08c81.22,90.72,121.83,206.5,121.83,347.33s-40.61,256.41-121.83,346.69ZM6807.13,719.28c44.5,61.34,107.78,92.02,189.86,92.02s144.72-30.45,187.92-91.36c43.19-60.91,64.8-139.75,64.8-236.53s-21.61-175.83-64.8-237.17c-43.2-61.34-105.84-92.02-187.92-92.02s-145.36,30.67-189.86,92.02-66.75,140.41-66.75,237.17,22.25,174.53,66.75,235.88Z"/><path class="cls-1" d="M7476.51,944.78V18.14h425.09c88.98,0,160.91,23.77,215.78,71.28,54.86,47.53,82.3,109.73,82.3,186.62,0,118.38-56.59,193.11-169.78,224.2v3.89c44.06,12.97,77.11,33.48,99.14,61.56,22.03,28.09,36.06,69.78,42.12,125.06,1.72,20.75,3.67,45.16,5.83,73.23s3.89,50.33,5.19,66.73c1.28,16.42,3.02,32.84,5.17,49.25,2.16,16.42,5.19,29.17,9.08,38.23,3.89,9.08,8.86,14.91,14.91,17.48v9.08h-180.14c-3.47-1.72-6.48-4.97-9.08-9.72s-4.75-11.44-6.47-20.08c-1.73-8.64-3.25-17.5-4.55-26.58-1.3-9.06-2.59-20.73-3.89-34.98s-2.38-26.78-3.23-37.59c-.88-10.8-1.95-25.05-3.25-42.77-1.3-17.7-2.38-31.75-3.23-42.12-7.78-105.41-68.25-158.11-181.44-158.11h-151.62v371.95h-187.92ZM7664.43,169.77v257.91h199.58c49.25,0,87.05-11.66,113.41-34.98,26.34-23.33,39.53-54,39.53-92.02s-12.53-70.42-37.59-94.61c-25.06-24.19-61.78-36.3-110.16-36.3h-204.77Z"/><path class="cls-1" d="M8191.89,176.25V18.14h745.2v158.11h-278.64v768.53h-187.92V176.25h-278.64Z"/><path class="cls-1" d="M8964.3,944.78V18.14h663.55v159.41h-475.62v222.92h403.05v160.7h-403.05v383.61h-187.92Z"/><path class="cls-1" d="M10371.75,830.09c-81.22,90.28-189.22,135.42-324,135.42s-243-45.14-324.64-135.42c-81.66-90.28-122.47-205.84-122.47-346.69s40.81-256.61,122.47-347.33c81.64-90.72,189.86-136.08,324.64-136.08s242.78,45.36,324,136.08c81.22,90.72,121.83,206.5,121.83,347.33s-40.61,256.41-121.83,346.69ZM9859.19,719.28c44.5,61.34,107.78,92.02,189.86,92.02s144.72-30.45,187.92-91.36c43.19-60.91,64.8-139.75,64.8-236.53s-21.61-175.83-64.8-237.17c-43.2-61.34-105.84-92.02-187.92-92.02s-145.36,30.67-189.86,92.02-66.75,140.41-66.75,237.17,22.25,174.53,66.75,235.88Z"/><path class="cls-1" d="M10528.58,944.78V18.14h187.92v769.83h435.45v156.81h-623.38Z"/><path class="cls-1" d="M11186.93,944.78V18.14h187.92v926.64h-187.92Z"/><path class="cls-1" d="M12182.24,830.09c-81.22,90.28-189.22,135.42-324,135.42s-243-45.14-324.64-135.42c-81.66-90.28-122.47-205.84-122.47-346.69s40.81-256.61,122.47-347.33c81.64-90.72,189.86-136.08,324.64-136.08s242.78,45.36,324,136.08c81.22,90.72,121.83,206.5,121.83,347.33s-40.61,256.41-121.83,346.69ZM11669.68,719.28c44.5,61.34,107.78,92.02,189.86,92.02s144.72-30.45,187.92-91.36c43.19-60.91,64.8-139.75,64.8-236.53s-21.61-175.83-64.8-237.17c-43.2-61.34-105.84-92.02-187.92-92.02s-145.36,30.67-189.86,92.02-66.75,140.41-66.75,237.17,22.25,174.53,66.75,235.88Z"/></svg>